<svg width="25" height="25" viewBox="0 0 25 25" fill="none" xmlns="http://www.w3.org/2000/svg">
<mask id="mask0_1127_11028" style="mask-type:luminance" maskUnits="userSpaceOnUse" x="0" y="0" width="25" height="25">
<path d="M24.0938 0.808594H0.09375V24.8086H24.0938V0.808594Z" fill="white"/>
</mask>
<g mask="url(#mask0_1127_11028)">
<path d="M17.0938 21.8086V19.8086C17.0938 18.7477 16.6723 17.7303 15.9222 16.9802C15.172 16.23 14.1546 15.8086 13.0938 15.8086H5.09375C4.03288 15.8086 3.01547 16.23 2.26532 16.9802C1.51518 17.7303 1.09375 18.7477 1.09375 19.8086V21.8086" stroke="#00FF84" stroke-width="2" stroke-linecap="round" stroke-linejoin="round"/>
<path d="M9.09375 11.8086C11.3029 11.8086 13.0938 10.0177 13.0938 7.80859C13.0938 5.59945 11.3029 3.80859 9.09375 3.80859C6.88461 3.80859 5.09375 5.59945 5.09375 7.80859C5.09375 10.0177 6.88461 11.8086 9.09375 11.8086Z" stroke="#00FF84" stroke-width="2" stroke-linecap="round" stroke-linejoin="round"/>
<path d="M23.0938 21.8095V19.8095C23.0931 18.9232 22.7981 18.0622 22.2551 17.3618C21.7121 16.6613 20.9518 16.161 20.0938 15.9395" stroke="#00FF84" stroke-width="2" stroke-linecap="round" stroke-linejoin="round"/>
<path d="M16.0938 3.93945C16.9542 4.15975 17.7168 4.66015 18.2614 5.36176C18.806 6.06337 19.1016 6.92628 19.1016 7.81445C19.1016 8.70262 18.806 9.56553 18.2614 10.2671C17.7168 10.9688 16.9542 11.4692 16.0938 11.6895" stroke="#00FF84" stroke-width="2" stroke-linecap="round" stroke-linejoin="round"/>
</g>
</svg>
